<svg width="40" height="40" viewBox="0 0 40 40" fill="none" xmlns="http://www.w3.org/2000/svg">
<path d="M32.3754 0.00209826C32.3542 -0.00205198 32.332 -7.23566e-05 32.3112 0.00827639C32.2696 0.0251428 32.2425 0.0649632 32.2425 0.109137L32.2338 25.0318L15.4806 25.0697C15.4513 25.0698 15.4233 25.0811 15.4025 25.1014L7.8284 32.487L7.83969 0.127863C7.83973 0.0671725 7.78966 0.0179313 7.72783 0.0178565H0.208104C0.146447 0.0179289 0.0964484 0.0669119 0.0962542 0.127435L7.63647e-08 39.8897C-0.000110541 39.9874 0.119979 40.0367 0.190757 39.968L7.76164 32.5981C7.7609 32.6547 7.80171 32.71 7.86938 32.71H32.1029C32.1321 32.71 32.1601 32.6987 32.1809 32.6785L39.9495 25.1324C39.9706 25.112 39.9824 25.0841 39.9824 25.055L40 7.52031C40 7.49134 39.9883 7.46356 39.9675 7.44307L32.4324 0.0321053C32.4165 0.0164695 32.3965 0.00625332 32.3754 0.00209826ZM22.3216 9.84133C22.2563 9.84126 22.2033 9.89319 22.2033 9.9573V14.0512C22.2033 14.1153 22.2563 14.1672 22.3216 14.1672H27.6901C27.7553 14.1671 27.8082 14.1152 27.8082 14.0512V9.9573C27.8082 9.89327 27.7553 9.84138 27.6901 9.84133H22.3216ZM12.3925 9.84644C12.3276 9.8465 12.2751 9.8981 12.275 9.96177V14.057C12.2751 14.1206 12.3276 14.1722 12.3925 14.1723H17.702C17.7669 14.1722 17.8195 14.1206 17.8195 14.057V9.96177C17.8195 9.8981 17.7669 9.8465 17.702 9.84644H12.3925ZM15.6726 16.3199C15.6415 16.3199 15.6115 16.332 15.5895 16.3536C15.5674 16.3753 15.555 16.4046 15.5549 16.4352V20.6047C15.555 20.6353 15.5674 20.6646 15.5895 20.6863C15.6115 20.7079 15.6415 20.72 15.6726 20.72H24.3627C24.3939 20.72 24.4237 20.7078 24.4458 20.6862C24.4678 20.6646 24.4802 20.6353 24.4802 20.6047V16.4352C24.4802 16.4047 24.4678 16.3753 24.4458 16.3537C24.4237 16.3321 24.3939 16.3199 24.3627 16.3199H15.6726Z" fill="#009959"/>
</svg>
