<svg width="320" height="132" viewBox="0 0 320 132" fill="none" xmlns="http://www.w3.org/2000/svg">
<path d="M90.5127 33.0035C90.4778 32.9966 90.441 32.9999 90.4066 33.0137C90.3379 33.0415 90.2931 33.1072 90.2931 33.1801L90.2787 74.3025L62.5876 74.365C62.5392 74.3651 62.4929 74.3839 62.4586 74.4173L49.9394 86.6036L49.9581 33.211C49.9582 33.1108 49.8754 33.0296 49.7732 33.0295H37.344C37.2421 33.0296 37.1594 33.1104 37.1591 33.2103L37 98.818C36.9998 98.9792 37.1983 99.0606 37.3153 98.9472L49.8291 86.7869C49.8279 86.8803 49.8953 86.9715 50.0072 86.9715H90.0623C90.1106 86.9715 90.157 86.9528 90.1913 86.9196L103.032 74.4685C103.067 74.4347 103.086 74.3887 103.086 74.3407L103.115 45.4085C103.115 45.3607 103.096 45.3149 103.062 45.2811L90.6069 33.053C90.5807 33.0272 90.5476 33.0103 90.5127 33.0035ZM73.895 49.2382C73.7871 49.2381 73.6995 49.3238 73.6994 49.4295V56.1845C73.6995 56.2903 73.7871 56.3759 73.895 56.3758H82.7685C82.8763 56.3757 82.9637 56.2901 82.9638 56.1845V49.4295C82.9637 49.3239 82.8763 49.2383 82.7685 49.2382H73.895ZM57.4833 49.2466C57.3761 49.2467 57.2892 49.3319 57.2891 49.4369V56.194C57.2892 56.299 57.3761 56.3842 57.4833 56.3843H66.2594C66.3666 56.3842 66.4535 56.299 66.4536 56.194V49.4369C66.4535 49.3319 66.3666 49.2467 66.2594 49.2466H57.4833ZM62.9051 59.9278C62.8535 59.9278 62.804 59.9478 62.7676 59.9835C62.7311 60.0192 62.7105 60.0676 62.7105 60.1181V66.9977C62.7105 67.0482 62.7311 67.0967 62.7676 67.1323C62.804 67.168 62.8535 67.1881 62.9051 67.188H77.2687C77.3202 67.188 77.3696 67.1679 77.406 67.1322C77.4424 67.0965 77.4629 67.0482 77.4629 66.9977V60.1181C77.4629 60.0677 77.4424 60.0193 77.406 59.9836C77.3696 59.9479 77.3202 59.9279 77.2687 59.9278H62.9051Z" fill="#009959"/>
<path d="M149.41 45.7742V51.9915L155.935 45.7742H149.41ZM137.38 45.8979C137.568 54.6919 137.481 63.4894 137.481 72.2849C137.481 74.8099 136.732 76.8923 135.207 78.5294C133.682 80.1665 131.601 80.9705 128.967 80.9705C126.61 80.9705 124.641 80.3599 123.06 79.1391C122.335 78.579 121.648 77.8215 121.648 77.8215L117.511 81.7525C117.511 81.7525 118.821 83.026 119.566 83.5792C122.145 85.4938 125.307 86.4648 129.05 86.4648C133.404 86.4648 136.926 85.1887 139.589 82.6359C142.251 80.0832 143.582 76.6698 143.582 72.3967L143.609 45.8979H137.38ZM161.555 45.8979V86.4488H167.517V81.3591C169.902 84.7443 173.314 86.4369 177.751 86.4369C181.8 86.4369 185.183 84.9936 187.9 82.1356C190.618 79.2776 191.977 75.6984 191.977 71.3975C191.977 67.0967 190.618 63.5175 187.9 60.6595C185.183 57.8015 181.8 56.3862 177.751 56.3862V56.3582C173.314 56.3582 169.902 58.0516 167.517 61.4367V45.8979L161.555 45.8979ZM249.552 45.8979L233.801 86.4488H240.234L244.033 76.0316H262.946L266.746 86.4488H273.18L257.428 45.8979H249.552ZM275.732 45.8979V86.4488H282V45.8979H275.732ZM253.518 51.7529L260.839 70.5652H246.142L253.518 51.7529ZM217.214 56.4668V71.3146C217.214 74.2003 216.466 76.5036 214.941 78.2517C213.416 79.9998 211.418 80.8596 208.95 80.8596C206.649 80.8596 204.901 80.1384 203.709 78.7233C202.516 77.3082 201.906 75.3382 201.906 72.8132V56.521H195.945V73.8945C195.945 77.8069 196.942 80.8872 198.939 83.1347C200.935 85.3822 203.737 86.4919 207.342 86.4919C211.612 86.4642 214.912 84.7724 217.214 81.415V86.4488H223.121V56.521L217.214 56.4668ZM149.406 56.521V86.4488H155.313V56.521H149.406ZM177.293 62.2412C180.325 62.1462 183.491 63.9973 183.491 64.4604C185.238 66.264 186.097 68.5671 186.097 71.3696C186.097 74.1721 185.211 76.5033 183.464 78.3347C181.717 80.166 179.47 81.0822 176.752 81.0822L176.78 81.1086C174.146 81.1086 171.899 80.1932 170.069 78.3618C168.238 76.5305 167.324 74.2001 167.324 71.3976C167.324 68.6228 168.132 66.2065 170.069 64.4884C170.774 63.8631 174.421 62.3311 177.293 62.2412Z" fill="#222E50"/>
</svg>
