<?xml version="1.0" encoding="UTF-8"?>
<svg version="1.1" xmlns="http://www.w3.org/2000/svg" width="1024" height="1024">
<path d="M0 0 C1.01857683 3.37002558 1.12573337 6.43935345 1.12698364 9.95162964 C1.12980347 11.17062958 1.13262329 12.38962952 1.13552856 13.64556885 C1.13358412 14.9940187 1.13153594 16.34246841 1.12939453 17.69091797 C1.13075002 19.11392257 1.13253079 20.53692683 1.13470459 21.95993042 C1.13926876 25.82882466 1.13749155 29.69769226 1.1343255 33.56658697 C1.13178784 37.63489699 1.13414418 41.70320478 1.13571167 45.77151489 C1.13753298 52.62290859 1.13513195 59.47429153 1.13037109 66.32568359 C1.12496762 74.19151781 1.12666251 82.05732594 1.1321975 89.92315948 C1.1367768 96.70739425 1.13735474 103.49162127 1.13475883 110.27585709 C1.13321722 114.31297678 1.13294222 118.35008436 1.13629532 122.38720322 C1.15675692 151.19832305 1.15675692 151.19832305 0.58935547 164.62548828 C0.555347 165.47315702 0.52133854 166.32082577 0.48629951 167.19418144 C-0.23310663 181.53180227 -4.99483848 193.65246415 -12 206 C-12.48339844 206.85207031 -12.96679688 207.70414063 -13.46484375 208.58203125 C-20.17863435 219.38247699 -29.38653075 228.13333916 -40 235 C-40.86496094 235.59296875 -41.72992188 236.1859375 -42.62109375 236.796875 C-63.20290466 249.99258923 -90.24949061 254.08220759 -114.0859375 249.2109375 C-140.43521276 243.30198968 -163.3006419 228.94100447 -178 206 C-180.68294805 201.48455249 -182.91771971 196.82394934 -185 192 C-185.54140625 190.75863281 -185.54140625 190.75863281 -186.09375 189.4921875 C-189.40459994 180.44866219 -189.68963654 168.44517697 -186.375 159.375 C-181.97908957 150.36948905 -175.12599768 144.68766003 -165.7421875 141.1484375 C-156.67165216 138.71012155 -148.26305432 140.16443813 -140.1484375 144.6953125 C-128.84020413 151.56249422 -123.01038285 166.41964097 -118.015625 178.3515625 C-116.67581652 180.52617473 -115.33381596 181.03010246 -113 182 C-112.39800781 182.33 -111.79601562 182.66 -111.17578125 183 C-101.36564212 188.26498033 -92.00592814 189.30526518 -81.3125 186.25 C-76.67487777 184.85038227 -73.70633454 183.08969394 -70 180 C-69.34 180 -68.68 180 -68 180 C-67.58427734 179.16275391 -67.58427734 179.16275391 -67.16015625 178.30859375 C-66.36785548 176.73199525 -65.56254477 175.16188483 -64.74609375 173.59765625 C-64.09833984 172.34275391 -64.09833984 172.34275391 -63.4375 171.0625 C-63.00308594 170.22847656 -62.56867188 169.39445313 -62.12109375 168.53515625 C-59.82594864 163.34508944 -59.86057953 158.22482446 -59.88647461 152.62963867 C-59.88625557 151.38496323 -59.88625557 151.38496323 -59.8860321 150.11514282 C-59.88672667 147.38272453 -59.89449771 144.65037508 -59.90234375 141.91796875 C-59.90420955 140.0193943 -59.90563269 138.12081937 -59.90663147 136.22224426 C-59.9104439 131.23278466 -59.9202633 126.24335432 -59.93133545 121.25390625 C-59.94157697 116.15950923 -59.94613496 111.06510748 -59.95117188 105.97070312 C-59.96188672 95.98045592 -59.97894784 85.9902304 -60 76 C-64.25203931 75.07801792 -68.107743 74.91309571 -72.46875 74.97265625 C-73.94270583 74.98532028 -75.41666431 74.99767988 -76.890625 75.00976562 C-79.18302945 75.03435493 -81.47529053 75.06213553 -83.76757812 75.09594727 C-100.37363853 75.32498394 -115.44428766 74.78725288 -128.24609375 62.890625 C-135.71568886 54.83876747 -137.84987303 45.78184587 -138 35 C-137.3380627 25.02681141 -132.34315162 16.39006253 -125.1171875 9.59765625 C-116.99886372 3.47146727 -107.36881745 -0.18991973 -97.21142578 -0.3347168 C-95.89699493 -0.35781418 -94.58256409 -0.38091156 -93.228302 -0.40470886 C-91.8006431 -0.41995074 -90.3729797 -0.43477514 -88.9453125 -0.44921875 C-87.44252649 -0.47055745 -85.93974934 -0.4925283 -84.4369812 -0.51509094 C-81.27476415 -0.56046172 -78.11255614 -0.59920383 -74.95019531 -0.63305664 C-71.00522822 -0.67563717 -67.06064642 -0.73264461 -63.11594009 -0.79447746 C-42.04772385 -1.11790195 -21.05444344 -0.83484177 0 0 Z " fill="#9767FE" transform="translate(344,364)"/>
<path d="M0 0 C1.77206192 0.00015919 3.54412846 0.00585754 5.31616211 0.01586914 C6.24698105 0.01728409 7.17779999 0.01869904 8.13682556 0.02015686 C11.12241777 0.02577367 14.10793615 0.03832899 17.09350586 0.05102539 C19.11238499 0.05603823 21.13126529 0.06060151 23.15014648 0.06469727 C28.11046158 0.07574856 33.07072118 0.09302444 38.03100586 0.11352539 C40.43642779 3.84011304 40.33706523 7.53157115 40.34985352 11.81958008 C40.35989914 12.59069626 40.36994476 13.36181244 40.3802948 14.15629578 C40.41112943 16.69932323 40.4281626 19.24224538 40.44506836 21.78540039 C40.46377979 23.55089219 40.48335319 25.31637505 40.50375366 27.08184814 C40.5550835 31.72437263 40.59470467 36.36692612 40.63189697 41.00958252 C40.67193126 45.74873025 40.72302624 50.48775726 40.77319336 55.22680664 C40.86996273 64.52229477 40.95436432 73.81785104 41.03100586 83.11352539 C41.69100586 83.11352539 42.35100586 83.11352539 43.03100586 83.11352539 C43.40225586 82.22987305 43.40225586 82.22987305 43.78100586 81.32836914 C47.77191858 74.25697067 56.8628848 70.23309167 64.03100586 67.11352539 C64.70260742 66.80415039 65.37420898 66.49477539 66.06616211 66.17602539 C79.58520879 60.75798741 97.54433206 62.11285028 110.85913086 67.59399414 C118.39865569 71.15976508 124.86602491 75.51824565 131.03100586 81.11352539 C131.87405273 81.86375977 132.71709961 82.61399414 133.58569336 83.38696289 C148.39187719 97.29307476 157.03697441 117.85868998 158.14086914 138.13110352 C158.88218214 165.0675522 152.71098667 189.81033543 134.16772461 209.94946289 C120.94678116 223.63307795 104.0159569 230.97943173 85.03100586 231.48852539 C66.91831993 231.00227879 53.71767468 224.80019421 41.03100586 212.11352539 C40.37100586 216.40352539 39.71100586 220.69352539 39.03100586 225.11352539 C32.01182026 227.78800424 24.95500267 227.37134241 17.53100586 227.30102539 C16.23807617 227.30038086 14.94514648 227.29973633 13.61303711 227.29907227 C-2.85963124 227.22288829 -2.85963124 227.22288829 -4.96899414 225.11352539 C-5.0947567 222.53902553 -5.15517417 219.99019327 -5.17431641 217.4140625 C-5.18421034 216.5966798 -5.19410427 215.7792971 -5.20429802 214.93714523 C-5.23631804 212.17175024 -5.26095517 209.40634081 -5.28540039 206.64086914 C-5.30618144 204.66054471 -5.3272715 202.68022349 -5.34864807 200.6999054 C-5.40528462 195.28411768 -5.45451931 189.86828603 -5.50162506 184.45240784 C-5.53140948 181.06066668 -5.56283939 177.66894425 -5.59466553 174.27722168 C-5.93253692 137.88132508 -6.07607028 101.48573749 -6.09193039 65.08833694 C-6.09399249 61.36649614 -6.09775204 57.64466013 -6.10183716 53.92282104 C-6.10769238 48.04539848 -6.1078452 42.16800241 -6.10337639 36.29057884 C-6.10234414 34.12945764 -6.10288503 31.96833501 -6.10513496 29.80721474 C-6.10769558 26.84190908 -6.10388275 23.87667718 -6.09838867 20.91137695 C-6.10041574 20.06007171 -6.1024428 19.20876646 -6.10453129 18.33166409 C-6.04113485 0.17279496 -6.04113485 0.17279496 0 0 Z M48.28100586 112.17602539 C36.74310899 124.64131822 36.23505171 140.32210028 36.84008789 156.29907227 C37.50851406 166.1528023 41.32830187 174.83027223 48.03100586 182.11352539 C55.66675467 188.59567186 63.88322042 191.68511647 73.84350586 191.55102539 C74.62959229 191.54417725 75.41567871 191.5373291 76.22558594 191.53027344 C85.85831551 191.26596979 93.65510539 188.34206356 101.03100586 182.11352539 C101.03100586 181.45352539 101.03100586 180.79352539 101.03100586 180.11352539 C101.69100586 180.11352539 102.35100586 180.11352539 103.03100586 180.11352539 C112.41012791 169.74289615 113.88112948 156.37077233 113.41381836 143.00415039 C112.61743781 130.11180105 108.09535804 119.75397414 98.78100586 110.80102539 C84.22841749 98.5846385 62.36764935 99.51040295 48.28100586 112.17602539 Z " fill="#9767FE" transform="translate(443.968994140625,363.886474609375)"/>
<path d="M0 0 C0.76691666 -0.0033284 1.53383331 -0.0066568 2.32398987 -0.01008606 C3.94718831 -0.01515188 5.57039718 -0.01749449 7.19360352 -0.01733398 C9.67807158 -0.01951952 12.16209497 -0.03767582 14.64648438 -0.05664062 C16.22265473 -0.0595748 17.7988272 -0.06155943 19.375 -0.0625 C20.11882431 -0.06968552 20.86264862 -0.07687103 21.62901306 -0.08427429 C25.38700009 -0.06761551 27.04599552 0.02936159 30.25390625 2.16796875 C30.55951615 4.9695361 30.67049821 7.55359987 30.65454102 10.35864258 C30.66500961 11.62985962 30.66500961 11.62985962 30.6756897 12.92675781 C30.69576247 15.74293812 30.6951667 18.55875426 30.6953125 21.375 C30.70708507 23.33641039 30.720449 25.29781183 30.7353363 27.25920105 C30.77162976 32.44098202 30.79174297 37.62268382 30.80688477 42.80456543 C30.8316326 51.05923691 30.87181386 59.31373273 30.92878532 67.56824303 C30.94496218 70.43785683 30.94888005 73.30730264 30.95179749 76.17695618 C30.56634957 96.85499299 30.56634957 96.85499299 39.66796875 114.72265625 C46.89590202 121.25485263 54.84746726 122.15677061 64.25390625 122.16796875 C71.16324238 121.63424194 76.8467109 119.57278585 82.25390625 115.16796875 C82.58390625 114.50796875 82.91390625 113.84796875 83.25390625 113.16796875 C83.91390625 113.16796875 84.57390625 113.16796875 85.25390625 113.16796875 C85.92952373 111.50491035 86.59323906 109.8370227 87.25390625 108.16796875 C87.76953125 107.01296875 88.28515625 105.85796875 88.81640625 104.66796875 C92.82191974 93.80563232 91.40287806 80.58289484 91.38671875 69.125 C91.38739391 67.42201219 91.3883657 65.71902447 91.38961792 64.01603699 C91.3910805 60.47707181 91.38898418 56.93813211 91.38427734 53.39916992 C91.37853256 48.85853751 91.38189783 44.31796361 91.38784981 39.77733326 C91.39145362 36.27472996 91.3903185 32.77214068 91.38772202 29.26953697 C91.38705473 27.59374675 91.38787427 25.91795526 91.39020157 24.24216652 C91.39273029 21.91376957 91.38888661 19.58546975 91.38330078 17.25708008 C91.38633713 16.21849098 91.38633713 16.21849098 91.38943481 15.15892029 C91.41404997 11.54110217 91.41404997 11.54110217 90.25390625 8.16796875 C91.25390625 4.60546875 91.25390625 4.60546875 93.25390625 1.16796875 C100.3531347 -0.39727956 107.70692458 -0.01596219 114.94140625 -0.01953125 C116.25947266 -0.03177734 117.57753906 -0.04402344 118.93554688 -0.05664062 C120.19947266 -0.05857422 121.46339844 -0.06050781 122.765625 -0.0625 C123.91506592 -0.06660889 125.06450684 -0.07071777 126.2487793 -0.07495117 C129.21152124 0.16454255 130.69745047 0.77867905 133.25390625 2.16796875 C133.38659806 15.93245061 133.51710041 29.6969515 133.64505768 43.46147823 C133.70458307 49.85787384 133.76477051 56.25426156 133.82666016 62.65063477 C133.97838848 78.37338573 134.11484757 94.09616532 134.22888184 109.81923676 C134.25331675 113.08908284 134.28022659 116.35890064 134.30761719 119.62872314 C134.34754718 124.52272489 134.37682792 129.41667069 134.3969574 134.31079292 C134.4056515 136.07188508 134.41774282 137.83296425 134.43348694 139.59400749 C134.45411477 141.98014104 134.46217593 144.3659868 134.46679688 146.75219727 C134.47552826 147.43867151 134.48425964 148.12514576 134.49325562 148.83242226 C134.48444589 152.71977016 133.95162823 155.66390987 132.25390625 159.16796875 C119.37106008 160.83027148 106.14407913 160.75794602 93.25390625 159.16796875 C91.38138375 154.60369515 91.09462676 150.86752771 91.28125 146.0234375 C91.46912595 144.15098491 91.46912595 144.15098491 90.25390625 143.16796875 C89.85300781 143.66425781 89.45210937 144.16054688 89.0390625 144.671875 C79.34263972 156.25921016 68.32517632 162.34941429 53.25390625 164.16796875 C35.60198332 165.32074739 19.69792736 160.93148722 6.25390625 149.16796875 C-11.39595749 131.30058909 -12.21528522 109.68890067 -12.109375 86.12890625 C-12.10885533 83.83061727 -12.10937716 81.53232785 -12.11088562 79.23403931 C-12.11079647 74.44843804 -12.10047759 69.66300727 -12.08227539 64.87744141 C-12.0594614 58.74528655 -12.0590735 52.61337738 -12.06579304 46.48119164 C-12.06913164 41.74917414 -12.06250707 37.01721271 -12.0526638 32.28520584 C-12.04881928 30.0229789 -12.04766048 27.76074573 -12.04924965 25.49851608 C-12.04962027 22.34703364 -12.03700488 19.19586838 -12.02075195 16.04443359 C-12.02322937 15.11349884 -12.02570679 14.18256409 -12.02825928 13.22341919 C-11.96100473 5.05708189 -11.96100473 5.05708189 -9.74609375 1.16796875 C-6.6553383 -0.37740897 -3.3920836 0.00506107 0 0 Z " fill="#9767FE" transform="translate(629.74609375,430.83203125)"/>
<path d="M0 0 C0.73951904 -0.00807175 1.47903809 -0.01614349 2.2409668 -0.02445984 C3.80092045 -0.03825573 5.36090372 -0.04899788 6.92089844 -0.05688477 C8.51538948 -0.06844141 10.10984075 -0.08895116 11.70410156 -0.1184082 C14.01133428 -0.16102012 16.31742305 -0.17723984 18.625 -0.1875 C19.33551514 -0.20500809 20.04603027 -0.22251617 20.77807617 -0.24055481 C23.97604912 -0.22653835 25.90686358 -0.06539989 28.49981594 1.87582302 C30.84482992 4.93206305 30.8175703 6.67732558 30.8271637 10.50758362 C30.83988815 11.79611237 30.85261261 13.08464111 30.86572266 14.41221619 C30.85954041 15.83804505 30.85293439 17.26387212 30.84594727 18.68969727 C30.85300526 20.19279834 30.86174977 21.6958923 30.87205505 23.19897461 C30.8945694 27.27950388 30.89160518 31.35964568 30.88273358 35.44021344 C30.87762715 38.84505794 30.8849132 42.24982939 30.89220566 45.65466636 C30.90921022 53.68447457 30.90563217 61.71409275 30.88891602 69.74389648 C30.87198139 78.0340501 30.88784611 86.32367769 30.9201389 94.61377388 C30.946804 101.72810728 30.95411956 108.84227661 30.94562382 115.95665497 C30.94068708 120.20734741 30.94295056 124.45772306 30.96341133 128.70837593 C30.98172127 132.70342111 30.97586836 136.69770691 30.95121193 140.69271088 C30.94618957 142.16048996 30.94973075 143.62832646 30.96236038 145.0960598 C30.97821097 147.09597761 30.96037196 149.09607876 30.94068909 151.09596252 C30.94010278 152.21627648 30.93951647 153.33659044 30.93891239 154.49085331 C30.3125 157.23828125 30.3125 157.23828125 27.94796658 159.09989834 C24.91774791 160.40879339 22.78171273 160.59720335 19.48828125 160.56640625 C17.82055664 160.55867188 17.82055664 160.55867188 16.11914062 160.55078125 C14.96607422 160.53015625 13.81300781 160.50953125 12.625 160.48828125 C11.49126953 160.483125 10.35753906 160.47796875 9.18945312 160.47265625 C-9.62664522 160.29913603 -9.62664522 160.29913603 -12.6875 157.23828125 C-12.93638897 154.59269714 -12.93638897 154.59269714 -12.93473816 151.16479492 C-12.93893265 149.86915619 -12.94312714 148.57351746 -12.94744873 147.23861694 C-12.94196481 145.79449389 -12.93628181 144.35037157 -12.93041992 142.90625 C-12.93149235 141.39197711 -12.93343045 139.87770462 -12.93617249 138.36343384 C-12.94103026 134.24367434 -12.93335356 130.12402273 -12.92321944 126.00427628 C-12.91445388 121.69971077 -12.9161961 117.39514879 -12.9165802 113.09057617 C-12.91564286 105.86082141 -12.90694961 98.63110855 -12.89331055 91.40136719 C-12.8775843 83.03416609 -12.87231241 74.66701091 -12.8730461 66.2997961 C-12.87365581 58.26192015 -12.86855555 50.2240592 -12.86025429 42.18618774 C-12.85671727 38.76038496 -12.85489044 35.33458748 -12.85436058 31.90878296 C-12.85335826 27.87708217 -12.84727077 23.84542015 -12.83719444 19.81373215 C-12.83426608 18.33102023 -12.83304475 16.84830384 -12.83362198 15.36558914 C-12.83411041 13.34764444 -12.8278554 11.32970141 -12.82121277 9.31176758 C-12.81953692 8.18055984 -12.81786108 7.04935211 -12.81613445 5.88386536 C-12.6875 3.23828125 -12.6875 3.23828125 -11.6875 1.23828125 C-7.96901153 -0.19574694 -3.93212179 0.04088065 0 0 Z " fill="#9767FE" transform="translate(383.6875,430.76171875)"/>
<path d="M0 0 C6.67658734 4.82318404 10.08547805 9.28095917 11.609375 17.3828125 C12.96013679 25.91908332 12.86692778 34.49720042 12.84692383 43.11816406 C12.84372583 46.01013626 12.86742949 48.90111963 12.89257812 51.79296875 C12.89484797 53.63932164 12.89555608 55.48567725 12.89453125 57.33203125 C12.903741 58.19244019 12.91295074 59.05284912 12.92243958 59.93933105 C12.89494061 63.47929459 12.86011452 65.85859727 11.20288086 69.03173828 C8.55462847 71.33924138 6.21432108 70.94431941 2.78125 70.86328125 C1.523125 70.83492187 0.265 70.8065625 -1.03125 70.77734375 C-4.46875 70.48828125 -4.46875 70.48828125 -8.21875 69.23828125 C-11.96423151 68.37393936 -12.7627602 68.83004573 -16.15625 70.36328125 C-23.95049804 73.83526447 -31.37923483 73.44408598 -39.40625 70.80078125 C-43.70183533 69.04181312 -46.55750971 67.19349617 -49.46875 63.48828125 C-50.21125 62.62203125 -50.95375 61.75578125 -51.71875 60.86328125 C-54.45186154 55.59228041 -55.19873112 50.0304847 -53.9921875 44.17578125 C-51.89679331 38.09683547 -48.8305829 34.03440021 -43.21875 30.80078125 C-32.34678196 25.71653737 -19.2192534 26.15779834 -7.46875 26.48828125 C-8.36805585 20.96971171 -8.36805585 20.96971171 -11.40625 16.55078125 C-16.7994503 13.77246594 -22.05599041 13.99679319 -27.84375 15.17578125 C-31.08986098 16.43551277 -31.08986098 16.43551277 -32.46875 21.48828125 C-39.06875 21.48828125 -45.66875 21.48828125 -52.46875 21.48828125 C-51.26989899 11.89747318 -48.79587207 6.7374789 -41.296875 0.73828125 C-29.9390515 -7.02775191 -11.64201733 -7.12889352 0 0 Z M-30.46875 43.23828125 C-32.7369981 45.79006036 -33.38377228 47.08917245 -33.46875 50.48828125 C-32.65250049 53.34515453 -31.90947846 54.22902921 -29.34375 55.73828125 C-22.82595884 57.4385746 -17.98677197 56.94557253 -12.16796875 53.6875 C-9.67152284 51.92564047 -8.55404518 50.33718109 -7.46875 47.48828125 C-7.21738967 44.27911954 -7.21738967 44.27911954 -7.46875 41.48828125 C-14.37412829 39.2785602 -24.1549722 39.5552442 -30.46875 43.23828125 Z M-8.46875 65.48828125 C-8.79875 66.14828125 -9.12875 66.80828125 -9.46875 67.48828125 C-8.80875 67.48828125 -8.14875 67.48828125 -7.46875 67.48828125 C-7.79875 66.82828125 -8.12875 66.16828125 -8.46875 65.48828125 Z " fill="#9768FD" transform="translate(843.46875,520.51171875)"/>
<path d="M0 0 C6.19431208 5.32971403 10.12333416 12.17216456 11.34375 20.28515625 C11.73046343 29.42126112 8.71513181 37.14188476 2.89453125 44.08984375 C0.11140859 46.89592 -2.39154567 48.35979349 -6 50 C-6.886875 50.4125 -7.77375 50.825 -8.6875 51.25 C-17.71443264 53.29383381 -25.85096915 52.41405838 -34 48 C-41.13747856 43.29059826 -45.18317091 35.19087116 -47 27 C-47.788 19.77666671 -45.65358482 13.07094324 -42.25 6.75 C-36.94161297 0.26197141 -31.3888915 -3.56296227 -23.1875 -5.75 C-14.48676925 -6.43241025 -7.29790406 -4.93068476 0 0 Z " fill="#9768FE" transform="translate(409,365)"/>
<path d="M0 0 C1.81436452 1.81436452 1.19126941 4.6317215 1.23706055 7.0769043 C1.27666145 9.02979622 1.27666145 9.02979622 1.31706238 11.0221405 C1.34069837 12.45615977 1.36390647 13.89018614 1.38671875 15.32421875 C1.41237075 16.78815435 1.43815476 18.25208764 1.46406555 19.71601868 C1.51712869 22.79199587 1.56603028 25.86800903 1.61254883 28.9440918 C1.67271863 32.87731256 1.74697247 36.81012647 1.82492352 40.74302959 C1.88268567 43.77047271 1.93090816 46.79801417 1.976511 49.82566261 C1.99985215 51.27491908 2.02658649 52.72412514 2.05682945 54.17325401 C2.09823505 56.20736512 2.12496321 58.24175875 2.15112305 60.27612305 C2.17031296 61.43226608 2.18950287 62.58840912 2.20927429 63.77958679 C1.98601034 67.21527954 1.40182587 69.85584648 0 73 C-6.28302734 75.09434245 -12.89985798 74.41463955 -19 72 C-20.09118422 68.72644735 -20.13348529 66.30974764 -20.14526367 62.86376953 C-20.15483345 60.96632492 -20.15483345 60.96632492 -20.16459656 59.0305481 C-20.16612538 57.64796995 -20.16723926 56.2653913 -20.16796875 54.8828125 C-20.17118259 53.46418219 -20.17454676 52.04555222 -20.17805481 50.62692261 C-20.18404254 47.65280387 -20.1858951 44.67871418 -20.18530273 41.70458984 C-20.18520118 37.89928679 -20.19884753 34.09417061 -20.21607494 30.28891182 C-20.22721092 27.35833893 -20.22922144 24.42781097 -20.22869301 21.49721909 C-20.22987094 20.09463736 -20.23428223 18.6920544 -20.24202538 17.28949356 C-20.25185604 15.32469345 -20.24767503 13.35983848 -20.24291992 11.39501953 C-20.24434494 10.27821808 -20.24576996 9.16141663 -20.24723816 8.01077271 C-19.99649665 4.95733759 -19.29391539 2.75952151 -18 0 C-11.90051567 -1.21989687 -6.14520393 -0.95686566 0 0 Z " fill="#9768FD" transform="translate(887,517)"/>
<path d="M0 0 C1.30195312 0.00322266 2.60390625 0.00644531 3.9453125 0.00976562 C5.32552149 0.01812159 6.70572982 0.02658654 8.0859375 0.03515625 C9.47395676 0.04017124 10.86197772 0.04473415 12.25 0.04882812 C15.65368882 0.06064649 19.05729189 0.07712191 22.4609375 0.09765625 C19.01459868 2.39521547 17.75025359 2.33409601 13.69921875 2.29296875 C12.58095703 2.28652344 11.46269531 2.28007812 10.31054688 2.2734375 C8.55967773 2.24830078 8.55967773 2.24830078 6.7734375 2.22265625 C5.59458984 2.21363281 4.41574219 2.20460938 3.20117188 2.1953125 C0.28755724 2.17172048 -2.62565142 2.13880165 -5.5390625 2.09765625 C-7.22396996 6.4994041 -7.77752377 10.105378 -7.734375 14.80859375 C-7.72792969 16.05253906 -7.72148438 17.29648437 -7.71484375 18.578125 C-7.68970703 20.50591797 -7.68970703 20.50591797 -7.6640625 22.47265625 C-7.65503906 23.78105469 -7.64601563 25.08945312 -7.63671875 26.4375 C-7.61321335 29.65773995 -7.58035337 32.87760332 -7.5390625 36.09765625 C-7.8690625 36.09765625 -8.1990625 36.09765625 -8.5390625 36.09765625 C-8.5390625 28.50765625 -8.5390625 20.91765625 -8.5390625 13.09765625 C-9.1990625 12.76765625 -9.8590625 12.43765625 -10.5390625 12.09765625 C-11.3515625 10.47265625 -11.3515625 10.47265625 -11.5390625 8.09765625 C-8.89735857 0.67572616 -7.640842 -0.03322105 0 0 Z " fill="#9C6DF7" transform="translate(731.5390625,430.90234375)"/>
<path d="M0 0 C3 1 3 1 3 1 Z " fill="#A377F6" transform="translate(225,613)"/>
<path d="M0 0 C3 1 3 1 3 1 Z " fill="#A279F6" transform="translate(176,504)"/>
<path d="M0 0 C2 1 2 1 2 1 Z " fill="#A377F3" transform="translate(236,615)"/>
<path d="M0 0 C2 1 2 1 2 1 Z " fill="#A478F4" transform="translate(532,596)"/>
<path d="M0 0 C2 1 2 1 2 1 Z " fill="#A577F4" transform="translate(525,596)"/>
<path d="M0 0 C2 1 2 1 2 1 Z " fill="#A277EF" transform="translate(869,591)"/>
<path d="M0 0 C2 1 2 1 2 1 Z " fill="#A375FC" transform="translate(675,548)"/>
<path d="" fill="#A273FC" transform="translate(0,0)"/>
<path d="M0 0 C2 1 2 1 2 1 Z " fill="#A477F7" transform="translate(237,439)"/>
<path d="" fill="#535453" transform="translate(0,0)"/>
<path d="" fill="#A275F3" transform="translate(0,0)"/>
<path d="" fill="#A378F6" transform="translate(0,0)"/>
<path d="" fill="#A579F6" transform="translate(0,0)"/>
<path d="" fill="#A57BF4" transform="translate(0,0)"/>
<path d="" fill="#A576F5" transform="translate(0,0)"/>
<path d="" fill="#A67AEF" transform="translate(0,0)"/>
<path d="" fill="#A176F6" transform="translate(0,0)"/>
<path d="" fill="#A178F5" transform="translate(0,0)"/>
<path d="" fill="#A177F3" transform="translate(0,0)"/>
<path d="" fill="#A076F7" transform="translate(0,0)"/>
<path d="" fill="#A479F5" transform="translate(0,0)"/>
<path d="" fill="#A478F3" transform="translate(0,0)"/>
<path d="" fill="#A276F6" transform="translate(0,0)"/>
<path d="" fill="#A274F8" transform="translate(0,0)"/>
<path d="" fill="#A374F8" transform="translate(0,0)"/>
<path d="" fill="#A377FB" transform="translate(0,0)"/>
<path d="" fill="#A477FA" transform="translate(0,0)"/>
<path d="" fill="#A472FD" transform="translate(0,0)"/>
<path d="" fill="#A275FF" transform="translate(0,0)"/>
<path d="" fill="#A278F5" transform="translate(0,0)"/>
<path d="" fill="#A175FF" transform="translate(0,0)"/>
<path d="" fill="#A576FE" transform="translate(0,0)"/>
<path d="" fill="#A479F5" transform="translate(0,0)"/>
<path d="" fill="#A578F9" transform="translate(0,0)"/>
<path d="" fill="#A373FB" transform="translate(0,0)"/>
<path d="" fill="#A573FC" transform="translate(0,0)"/>
<path d="" fill="#A274FA" transform="translate(0,0)"/>
<path d="" fill="#A27AF6" transform="translate(0,0)"/>
<path d="" fill="#A374FD" transform="translate(0,0)"/>
<path d="" fill="#A376FF" transform="translate(0,0)"/>
<path d="" fill="#A473FC" transform="translate(0,0)"/>
<path d="" fill="#A273FD" transform="translate(0,0)"/>
<path d="" fill="#9F72FB" transform="translate(0,0)"/>
<path d="" fill="#A072FB" transform="translate(0,0)"/>
<path d="" fill="#9F74FA" transform="translate(0,0)"/>
<path d="" fill="#A074FB" transform="translate(0,0)"/>
<path d="" fill="#A37CEA" transform="translate(0,0)"/>
<path d="" fill="#A274FA" transform="translate(0,0)"/>
<path d="" fill="#9F75FF" transform="translate(0,0)"/>
<path d="" fill="#A678FC" transform="translate(0,0)"/>
<path d="" fill="#A477F8" transform="translate(0,0)"/>
<path d="" fill="#A272FB" transform="translate(0,0)"/>
<path d="" fill="#A473FE" transform="translate(0,0)"/>
<path d="" fill="#A372FD" transform="translate(0,0)"/>
<path d="" fill="#A174FB" transform="translate(0,0)"/>
<path d="" fill="#A373FE" transform="translate(0,0)"/>
<path d="" fill="#A173FE" transform="translate(0,0)"/>
<path d="" fill="#A273FA" transform="translate(0,0)"/>
<path d="" fill="#A371FE" transform="translate(0,0)"/>
<path d="" fill="#A373FD" transform="translate(0,0)"/>
<path d="" fill="#A074FA" transform="translate(0,0)"/>
<path d="" fill="#A274FA" transform="translate(0,0)"/>
<path d="" fill="#A275FD" transform="translate(0,0)"/>
<path d="" fill="#A47AF0" transform="translate(0,0)"/>
<path d="" fill="#A479F8" transform="translate(0,0)"/>
<path d="" fill="#A577F8" transform="translate(0,0)"/>
<path d="" fill="#A77EF3" transform="translate(0,0)"/>
<path d="" fill="#A476FA" transform="translate(0,0)"/>
<path d="" fill="#A276FC" transform="translate(0,0)"/>
<path d="" fill="#A475FC" transform="translate(0,0)"/>
<path d="" fill="#A476FC" transform="translate(0,0)"/>
<path d="" fill="#A478F0" transform="translate(0,0)"/>
<path d="" fill="#A27DE9" transform="translate(0,0)"/>
</svg>
